<svg width="20" height="14" viewBox="0 0 20 14" fill="none" xmlns="http://www.w3.org/2000/svg">
<path d="M20 2.35036C18.6387 2.691 17.5916 3.20195 16.8586 3.88321C16.1606 4.53041 15.8464 5.31387 15.9162 6.23358C16.37 6.77859 16.9284 7.22141 17.5916 7.56204C18.2897 7.86861 19.0227 8.14112 19.7906 8.37956C19.9651 8.9927 19.9825 9.62287 19.8429 10.2701C19.7382 10.8832 19.5113 11.4623 19.1623 12.0073C18.8133 12.5182 18.3944 12.9611 17.9058 13.3358C17.452 13.7105 16.9808 13.9319 16.4921 14C15.7592 13.9659 15.0436 13.8297 14.3455 13.5912C13.6475 13.3187 13.0366 12.944 12.5131 12.4672C11.9895 11.9903 11.5532 11.4282 11.2042 10.781C10.8901 10.0998 10.733 9.33333 10.733 8.48175C10.733 7.45985 10.9424 6.48905 11.3613 5.56934C11.7801 4.61557 12.356 3.76399 13.089 3.0146C13.8569 2.26521 14.7644 1.63504 15.8115 1.12409C16.8586 0.579077 18.0105 0.204381 19.267 0L20 2.35036ZM9.26702 2.35036C7.90576 2.691 6.85864 3.20195 6.12565 3.88321C5.42757 4.53041 5.11344 5.31387 5.18325 6.23358C5.637 6.77859 6.19546 7.22141 6.85864 7.56204C7.55672 7.86861 8.2897 8.14112 9.05759 8.37956C9.23211 8.9927 9.24956 9.62287 9.10995 10.2701C9.00523 10.8832 8.77836 11.4623 8.42932 12.0073C8.08028 12.5182 7.66143 12.9611 7.17277 13.3358C6.71902 13.7105 6.24782 13.9319 5.75916 14C5.02618 13.9659 4.31065 13.8297 3.61257 13.5912C2.91449 13.3187 2.30366 12.944 1.7801 12.4672C1.25654 11.9903 0.820244 11.4282 0.471204 10.781C0.157068 10.0998 0 9.33333 0 8.48175C0 7.45985 0.209424 6.48905 0.628272 5.56934C1.04712 4.61557 1.62304 3.76399 2.35602 3.0146C3.12391 2.26521 4.03141 1.63504 5.07853 1.12409C6.12565 0.579077 7.27749 0.204381 8.53403 0L9.26702 2.35036Z" fill="#393939"/>
</svg>
